<?xml version="1.0" encoding="UTF-8"?><svg id="logo-77" xmlns="http://www.w3.org/2000/svg" viewBox="0 0 40 40"><defs><style>.cls-1{fill:#fff;fill-rule:evenodd;}</style></defs><path class="cls-1" d="m20,0c11.05,0,20,8.95,20,20s-8.95,20-20,20S0,31.05,0,20,8.95,0,20,0Zm-.72,1.5c-2.28.32-4.45,2.15-6.14,5.22-.49.89-.93,1.87-1.32,2.93,2.29-.58,4.81-.92,7.46-.97V1.5Zm-9.15,8.63c.48-1.5,1.06-2.88,1.74-4.11.84-1.52,1.83-2.83,2.95-3.84C8.74,3.95,3.95,8.74,2.18,14.82c1.01-1.12,2.32-2.11,3.84-2.95,1.23-.68,2.61-1.26,4.11-1.74Zm-.48,1.69c-.58,2.29-.92,4.81-.97,7.46H1.5c.32-2.28,2.15-4.45,5.22-6.14.89-.49,1.87-.93,2.93-1.32Zm.48,7.46c.06-2.89.48-5.59,1.16-7.99,2.39-.69,5.1-1.1,7.99-1.16v3.12c-1.08,2.76-3.27,4.95-6.03,6.03h-3.12Zm-1.45,1.45H1.5c.32,2.28,2.15,4.45,5.22,6.14.89.49,1.87.93,2.93,1.32-.58-2.29-.92-4.81-.97-7.46Zm2.61,7.99c-.69-2.39-1.1-5.1-1.16-7.99h3.12c2.76,1.08,4.95,3.27,6.03,6.03v3.12c-2.89-.06-5.59-.48-7.99-1.16Zm-1.16,1.16c-1.5-.48-2.88-1.06-4.11-1.74-1.52-.84-2.83-1.83-3.84-2.95,1.77,6.08,6.56,10.87,12.64,12.64-1.12-1.01-2.11-2.32-2.95-3.84-.68-1.23-1.26-2.61-1.74-4.11Zm9.15,8.63c-2.28-.32-4.45-2.15-6.14-5.22-.49-.89-.93-1.87-1.32-2.93,2.29.58,4.81.92,7.46.97v7.19Zm5.91-.68c1.12-1.01,2.11-2.32,2.95-3.84.68-1.23,1.26-2.61,1.74-4.11,1.5-.48,2.88-1.06,4.11-1.74,1.52-.84,2.83-1.83,3.84-2.95-1.77,6.08-6.56,10.87-12.64,12.64Zm2.99-7.47c-.38,1.06-.83,2.04-1.32,2.93-1.69,3.07-3.86,4.9-6.14,5.22v-7.19c2.64-.05,5.16-.39,7.46-.97Zm2.17-2.17c1.06-.38,2.04-.83,2.93-1.32,3.07-1.69,4.9-3.86,5.22-6.14h-7.19c-.05,2.64-.39,5.16-.97,7.46Zm-.48-7.46c-.06,2.89-.48,5.59-1.16,7.99-2.39.69-5.1,1.1-7.99,1.16v-3.12c1.08-2.76,3.27-4.95,6.03-6.03h3.12Zm1.45-1.45h7.19c-.32-2.28-2.15-4.45-5.22-6.14-.89-.49-1.87-.93-2.93-1.32.58,2.29.92,4.81.97,7.46Zm-2.61-7.99c.69,2.39,1.1,5.1,1.16,7.99h-3.12c-2.76-1.08-4.95-3.27-6.03-6.03v-3.12c2.89.06,5.59.48,7.99,1.16Zm1.16-1.16c1.5.48,2.88,1.06,4.11,1.74,1.52.84,2.83,1.83,3.84,2.95-1.77-6.08-6.56-10.87-12.64-12.64,1.12,1.01,2.11,2.32,2.95,3.84.68,1.23,1.26,2.61,1.74,4.11ZM20.72,1.5c2.28.32,4.45,2.15,6.14,5.22.49.89.93,1.87,1.32,2.93-2.29-.58-4.81-.92-7.46-.97V1.5Z"/></svg>